# xmcd CD database file generated by LOLA_Freedb v0.9beta0
# 
# Track frame offsets:
#      150
#      12938
#      24906
#      39158
#      53284
#      66091
#      77808
#      93832
#      109929
#      125797
#      144231
#      156642
#      171107
#      188517
#      200013
#      212520
#      227218
#      236743
# 
# Disc length: 3408 seconds
# 
# Revision: 0 
# Processed by: cddbd v1.5.2PL0 Copyright (c) Steve Scherf et al.
# Submitted via: LOLA_Freedb v0.9beta0
# 
DISCID=e90d4e12
DTITLE=Nashville Line Dancing Connection - Country Line Dancing vol.2
DYEAR=1997
DGENRE=
TTITLE0=Cadillac Ranch
TTITLE1=Hillbilly Rock
TTITLE2=Chattahoochee
TTITLE3=Rock My World
TTITLE4=If Bubba Can Dance (I Can Too)
TTITLE5=The Whiskey Ain't Workin'
TTITLE6=Mercury Blues
TTITLE7=He Thinks He'll Keep Her
TTITLE8=Why Haven't I Heard From You
TTITLE9=Neon Moon
TTITLE10=What The Cowgirls Do
TTITLE11=Summertime Blues
TTITLE12=Gone Country
TTITLE13=Goin' Through The Big D
TTITLE14=Little Miss Honky Tonk
TTITLE15=Third Rate Romance
TTITLE16=The Big One
TTITLE17=Any Man Of Mine
EXTD=
EXTT0=
EXTT1=
EXTT2=
EXTT3=
EXTT4=
EXTT5=
EXTT6=
EXTT7=
EXTT8=
EXTT9=
EXTT10=
EXTT11=
EXTT12=
EXTT13=
EXTT14=
EXTT15=
EXTT16=
EXTT17=
PLAYORDER=
